# xmcd
#
# Track frame offsets:
#	150
#	4144
#	25564
#	52082
#	93338
#	98670
#	127522
#	148703
#
# Disc length: 2135 seconds
#
# Revision: 2
# Processed by: cddbd v1.5.2PL0 Copyright (c) Steve Scherf et al.
# Submitted via: EZCDDA 4.3.2
#
DISCID=57085508
DTITLE=Creature - Der Ursprung
DYEAR=1900
DGENRE=
TTITLE0=Intro
TTITLE1=Der Letzte Krieger
TTITLE2=Die Suche Nach Bifrost
TTITLE3=Nordblut
TTITLE4=Zwischenspiel
TTITLE5=Der Ursprung
TTITLE6=March Against The Cross
TTITLE7=Outro
EXTD=
EXTT0=
EXTT1=
EXTT2=
EXTT3=
EXTT4=
EXTT5=
EXTT6=
EXTT7=
PLAYORDER=
